<svg id="Layer_1" data-name="Layer 1" xmlns="http://www.w3.org/2000/svg" xmlns:xlink="http://www.w3.org/1999/xlink" viewBox="0 0 78 56"><defs><style>.cls-1{fill:#fff;}.cls-2{fill:url(#linear-gradient);}.cls-3{fill:url(#linear-gradient-2);}.cls-4{fill:url(#linear-gradient-3);}.cls-5{fill:url(#linear-gradient-4);}.cls-6{fill:url(#linear-gradient-5);}.cls-7{fill:url(#linear-gradient-6);}</style><linearGradient id="linear-gradient" x1="39.03" y1="35.19" x2="39.59" y2="26.68" gradientUnits="userSpaceOnUse"><stop offset="0" stop-color="#8958fe"/><stop offset="0.07" stop-color="#895ffe"/><stop offset="0.7" stop-color="#8a9cfa"/><stop offset="1" stop-color="#8ab4f8"/></linearGradient><linearGradient id="linear-gradient-2" x1="63.94" y1="36.85" x2="64.51" y2="28.34" xlink:href="#linear-gradient"/><linearGradient id="linear-gradient-3" x1="69.37" y1="37.21" x2="69.94" y2="28.7" xlink:href="#linear-gradient"/><linearGradient id="linear-gradient-4" x1="25.49" y1="32.59" x2="29.53" y2="35.4" gradientUnits="userSpaceOnUse"><stop offset="0" stop-color="#8d5bf8" stop-opacity="0"/><stop offset="0.99" stop-color="#37002a"/></linearGradient><linearGradient id="linear-gradient-5" x1="51.47" y1="32.23" x2="47.04" y2="36.63" gradientUnits="userSpaceOnUse"><stop offset="0" stop-color="#8d5bf8" stop-opacity="0"/><stop offset="0.29" stop-color="#6d39ac" stop-opacity="0.37"/><stop offset="0.73" stop-color="#46104d" stop-opacity="0.83"/><stop offset="0.99" stop-color="#37002a"/></linearGradient><linearGradient id="linear-gradient-6" x1="58.35" y1="28.66" x2="61.53" y2="30.94" gradientUnits="userSpaceOnUse"><stop offset="0" stop-color="#90b0f4" stop-opacity="0"/><stop offset="0.29" stop-color="#6f6fa9" stop-opacity="0.37"/><stop offset="0.73" stop-color="#461e4c" stop-opacity="0.83"/><stop offset="0.99" stop-color="#37002a"/></linearGradient></defs><path class="cls-1" d="M27,23.36c2.6,0,3.45.83,3.45,3.43v2.33l3-5.45c-.79-2.31-2.78-3.37-6.33-3.37H4.35c-.33,0-.51.15-.51.48v2.16a.45.45,0,0,0,.51.5H10V35.22a.42.42,0,0,0,.48.48h2.4a.42.42,0,0,0,.48-.48V23.44Z"/><path class="cls-1" d="M46.73,26.43c0-2.33.67-3,2.93-3H60a.37.37,0,0,0,.26-.63L57.87,20.4a.4.4,0,0,0-.26-.1H49.53c-3.51,0-5.32,1-5.92,3.5l3.12,5.67Z"/><path class="cls-2" d="M58.23,26.56H51.32a.45.45,0,0,0-.49.5v1.66a.45.45,0,0,0,.49.5h5.8l2,2h0L57.81,32.6l-8.83,0a2.67,2.67,0,0,1-2.33-1.37L41.54,22A2.54,2.54,0,0,0,39,20.3H37.72c-.93,0-1.59.35-2.32,1.67l-1.68,3.08-3.4,6.22A2.63,2.63,0,0,1,28,32.64H19.77a.27.27,0,0,1-.28-.28v-8l-3.37,0V35a.65.65,0,0,0,.66.66h10.3c3.42,0,5.39-1,6.23-3.12h10.4c.69,2.22,2.49,3.11,5.82,3.11h8.95l4.44-4.45ZM34.74,30l3.46-6.44c.07-.11.13-.16.24-.16h.13a.28.28,0,0,1,.25.16L42.31,30Z"/><polygon class="cls-3" points="64 26.55 60.24 26.55 64.94 31.25 64.93 31.25 60.5 35.7 64.26 35.7 68.7 31.25 64 26.55"/><polygon class="cls-4" points="69.46 26.55 65.7 26.55 70.39 31.25 70.39 31.25 65.96 35.7 69.72 35.7 74.16 31.25 69.46 26.55"/><path class="cls-5" d="M30.32,31.27l-1.43,2.6a3.5,3.5,0,0,1-3.07,1.82H23.23l.94-3.06H28A2.64,2.64,0,0,0,30.32,31.27Z"/><path class="cls-6" d="M53.76,35.7H51.14A3.52,3.52,0,0,1,48,33.84l-1.38-2.57A2.64,2.64,0,0,0,49,32.62h3.8Z"/><path class="cls-7" d="M60,30.44l-.81.81-2-2,1.11-2.65L60,28.3A1.51,1.51,0,0,1,60,30.44Z"/></svg>