<?xml version="1.0" encoding="UTF-8"?>
<svg id="Layer_2" data-name="Layer 2" xmlns="http://www.w3.org/2000/svg" viewBox="0 0 857.25 145.91">
  <defs>
    <style>
      .cls-1 {
        fill: #8ab4f8;
      }

      .cls-1, .cls-2 {
        stroke-width: 0px;
      }

      .cls-2 {
        fill: #181818;
      }
    </style>
  </defs>
  <g id="_Слой_1" data-name="Слой 1">
    <g>
      <g>
        <circle class="cls-1" cx="7.41" cy="136.23" r="7.41"/>
        <circle class="cls-1" cx="10.71" cy="118.42" r="5.32"/>
        <circle class="cls-1" cx="22.03" cy="127.64" r="5.32"/>
        <circle class="cls-1" cx="21.97" cy="106.56" r="5.32"/>
        <circle class="cls-1" cx="30.84" cy="118.87" r="3.95"/>
        <circle class="cls-1" cx="33.45" cy="106.78" r="3.95"/>
        <circle class="cls-1" cx="41.82" cy="96.57" r="3.95"/>
        <circle class="cls-1" cx="34.26" cy="89.4" r="3.95"/>
        <circle class="cls-1" cx="46.61" cy="85.41" r="3.95"/>
        <circle class="cls-1" cx="42.72" cy="76.1" r="3.19"/>
        <circle class="cls-1" cx="52.3" cy="72.55" r="3.19"/>
        <circle class="cls-1" cx="57.91" cy="62.98" r="3.19"/>
        <circle class="cls-1" cx="63.38" cy="72.38" r="3.19"/>
        <circle class="cls-1" cx="69.56" cy="66.28" r="3.19"/>
        <circle class="cls-1" cx="64.26" cy="55.15" r="3.19"/>
        <circle class="cls-1" cx="76.84" cy="58.38" r="3.19"/>
        <circle class="cls-1" cx="84.62" cy="54.29" r="3.19"/>
        <circle class="cls-1" cx="82.79" cy="44.14" r="3.19"/>
        <circle class="cls-1" cx="96.41" cy="42.25" r="3.19"/>
        <circle class="cls-1" cx="106.92" cy="36.41" r="3.19"/>
        <circle class="cls-1" cx="115.18" cy="38.21" r="3.19"/>
        <circle class="cls-1" cx="116.71" cy="28.58" r="3.19"/>
        <circle class="cls-1" cx="123.2" cy="23.71" r="2.45"/>
        <circle class="cls-1" cx="108.12" cy="27.78" r="2.45"/>
        <circle class="cls-1" cx="123.92" cy="34.23" r="2.45"/>
        <circle class="cls-1" cx="133.45" cy="31.25" r="2.45"/>
        <circle class="cls-1" cx="130.66" cy="24.7" r="2.45"/>
        <circle class="cls-1" cx="136.95" cy="20.46" r="2.45"/>
        <circle class="cls-1" cx="141.48" cy="27.25" r="2.45"/>
        <circle class="cls-1" cx="143.46" cy="19.76" r="2.13"/>
        <circle class="cls-1" cx="148.56" cy="23.42" r="2.13"/>
        <circle class="cls-1" cx="149.79" cy="17.12" r="2.13"/>
        <circle class="cls-1" cx="155.98" cy="22.82" r="1.92"/>
        <circle class="cls-1" cx="155.85" cy="15.39" r="1.92"/>
        <circle class="cls-1" cx="160.28" cy="18.64" r="1.92"/>
        <circle class="cls-1" cx="161.22" cy="12.72" r="1.92"/>
        <circle class="cls-1" cx="166.89" cy="14.71" r="1.92"/>
        <circle class="cls-1" cx="167.77" cy="9.49" r="1.92"/>
        <circle class="cls-1" cx="173.65" cy="10.9" r="1.92"/>
        <circle class="cls-1" cx="173.34" cy="4.92" r="1.92"/>
        <circle class="cls-1" cx="178.18" cy="5.73" r="1.92"/>
        <circle class="cls-1" cx="183.26" cy="1.92" r="1.92"/>
        <circle class="cls-1" cx="97.11" cy="30.9" r="2.63"/>
        <circle class="cls-1" cx="89.52" cy="36.99" r="2.63"/>
        <circle class="cls-1" cx="90.29" cy="48.56" r="2.63"/>
        <circle class="cls-1" cx="71.36" cy="48.19" r="2.63"/>
        <circle class="cls-1" cx="57.17" cy="80.19" r="2.63"/>
      </g>
      <g>
        <g>
          <path class="cls-2" d="M191.27,125.52l-.11-44.14-21.65,36.36h-7.67l-21.54-35.41v43.19h-15.97V51.96h14.08l27.53,45.71,27.11-45.71h13.98l.21,73.56h-15.97Z"/>
          <path class="cls-2" d="M262.3,74.4c4.69,4.17,7.04,10.46,7.04,18.86v32.26h-15.34v-7.04c-3.08,5.25-8.83,7.88-17.23,7.88-4.35,0-8.11-.74-11.3-2.21-3.19-1.47-5.62-3.5-7.3-6.1s-2.52-5.53-2.52-8.83c0-5.26,1.98-9.39,5.94-12.4,3.96-3.01,10.07-4.52,18.34-4.52h13.03c0-3.57-1.09-6.32-3.26-8.25-2.17-1.93-5.43-2.89-9.77-2.89-3.01,0-5.97.47-8.88,1.42-2.91.95-5.38,2.22-7.41,3.84l-5.89-11.45c3.08-2.17,6.78-3.85,11.09-5.04,4.31-1.19,8.74-1.79,13.29-1.79,8.76,0,15.48,2.09,20.18,6.25ZM248.33,113.38c2.17-1.3,3.71-3.21,4.62-5.73v-5.78h-11.24c-6.73,0-10.09,2.21-10.09,6.62,0,2.1.82,3.77,2.47,4.99,1.65,1.23,3.9,1.84,6.78,1.84s5.29-.65,7.46-1.94Z"/>
          <path class="cls-2" d="M278.52,68.98v56.54h16.39v-56.54h-16.39Z"/>
          <path class="cls-2" d="M356.18,74.45c4.31,4.2,6.46,10.44,6.46,18.7v32.37h-16.39v-29.84c0-4.48-.98-7.83-2.94-10.04-1.96-2.21-4.8-3.31-8.51-3.31-4.13,0-7.43,1.28-9.88,3.84-2.45,2.56-3.68,6.36-3.68,11.4v27.95h-16.39v-56.54h15.66v6.62c2.17-2.38,4.87-4.22,8.09-5.52,3.22-1.3,6.76-1.94,10.61-1.94,7,0,12.66,2.1,16.97,6.31Z"/>
          <path class="cls-2" d="M382.14,123.79c-5.15-1.72-9.19-3.94-12.14-6.67l3.89-8.2c2.8,2.52,6.39,4.57,10.77,6.15,4.38,1.58,8.88,2.36,13.5,2.36,6.1,0,10.65-1.03,13.66-3.1,3.01-2.07,4.52-4.82,4.52-8.25,0-2.52-.82-4.57-2.47-6.15-1.65-1.58-3.68-2.78-6.1-3.62-2.42-.84-5.83-1.79-10.25-2.84-5.54-1.33-10-2.66-13.4-3.99-3.4-1.33-6.3-3.38-8.72-6.15-2.42-2.77-3.63-6.5-3.63-11.19,0-3.92,1.03-7.46,3.1-10.61,2.07-3.15,5.2-5.68,9.41-7.57,4.2-1.89,9.42-2.84,15.66-2.84,4.34,0,8.62.56,12.82,1.68,4.2,1.12,7.81,2.73,10.82,4.83l-3.47,8.41c-3.08-1.96-6.37-3.45-9.88-4.47-3.5-1.02-6.94-1.52-10.3-1.52-5.96,0-10.42,1.09-13.4,3.26-2.98,2.17-4.47,4.98-4.47,8.41,0,2.52.84,4.57,2.52,6.15s3.77,2.8,6.25,3.68c2.49.88,5.87,1.8,10.14,2.78,5.53,1.33,9.98,2.66,13.35,3.99,3.36,1.33,6.25,3.36,8.67,6.1,2.42,2.73,3.63,6.41,3.63,11.03,0,3.85-1.05,7.37-3.15,10.56-2.1,3.19-5.29,5.71-9.56,7.57-4.27,1.86-9.53,2.78-15.76,2.78-5.54,0-10.88-.86-16.03-2.57Z"/>
          <path class="cls-2" d="M486.43,101.04h-45.19c.63,4.91,2.78,8.85,6.46,11.82,3.68,2.98,8.25,4.47,13.71,4.47,6.65,0,12.01-2.24,16.08-6.73l5.57,6.51c-2.52,2.94-5.66,5.19-9.4,6.73-3.75,1.54-7.93,2.31-12.56,2.31-5.89,0-11.11-1.21-15.66-3.63-4.55-2.42-8.07-5.8-10.56-10.14-2.49-4.34-3.73-9.25-3.73-14.71s1.21-10.26,3.63-14.61c2.42-4.34,5.74-7.72,9.98-10.14,4.24-2.42,9.02-3.63,14.35-3.63s10.07,1.21,14.24,3.63c4.17,2.42,7.42,5.8,9.77,10.14,2.35,4.35,3.52,9.32,3.52,14.92,0,.77-.07,1.79-.21,3.05ZM446.97,82.23c-3.26,2.94-5.17,6.8-5.73,11.56h35.73c-.56-4.69-2.47-8.53-5.73-11.51-3.26-2.98-7.3-4.47-12.14-4.47s-8.88,1.47-12.14,4.41Z"/>
          <path class="cls-2" d="M549.95,69.83v76.08h-10.09v-28.79c-2.31,2.94-5.13,5.19-8.46,6.73-3.33,1.54-6.99,2.31-10.98,2.31-5.4,0-10.23-1.19-14.5-3.57-4.28-2.38-7.62-5.73-10.04-10.04-2.42-4.31-3.63-9.26-3.63-14.87s1.21-10.54,3.63-14.82c2.42-4.27,5.76-7.6,10.04-9.98,4.27-2.38,9.11-3.57,14.5-3.57,4.13,0,7.92.79,11.35,2.36,3.43,1.58,6.27,3.91,8.51,6.99v-8.83h9.67ZM530.83,114.85c2.87-1.64,5.11-3.96,6.73-6.93,1.61-2.98,2.42-6.39,2.42-10.25s-.82-7.25-2.47-10.19c-1.65-2.94-3.89-5.23-6.73-6.88-2.84-1.64-6.01-2.47-9.51-2.47s-6.78.81-9.61,2.42c-2.84,1.61-5.08,3.91-6.73,6.88-1.65,2.98-2.47,6.4-2.47,10.25s.82,7.27,2.47,10.25c1.64,2.98,3.89,5.29,6.73,6.93,2.84,1.65,6.04,2.47,9.61,2.47s6.69-.82,9.56-2.47Z"/>
          <path class="cls-2" d="M612.56,69.83v55.7h-9.56v-8.41c-2.03,2.87-4.71,5.1-8.04,6.67-3.33,1.58-6.95,2.36-10.88,2.36-7.43,0-13.28-2.05-17.55-6.15-4.27-4.1-6.41-10.14-6.41-18.13v-32.05h10.09v30.9c0,5.4,1.3,9.47,3.89,12.24,2.59,2.77,6.31,4.15,11.14,4.15,5.32,0,9.53-1.61,12.61-4.83,3.08-3.22,4.62-7.78,4.62-13.66v-28.79h10.09Z"/>
          <path class="cls-2" d="M676.06,101.04h-45.19c.63,4.91,2.78,8.85,6.46,11.82,3.68,2.98,8.25,4.47,13.71,4.47,6.65,0,12.01-2.24,16.08-6.73l5.57,6.51c-2.52,2.94-5.66,5.19-9.41,6.73-3.75,1.54-7.93,2.31-12.56,2.31-5.88,0-11.1-1.21-15.66-3.63-4.56-2.42-8.07-5.8-10.56-10.14-2.49-4.34-3.73-9.25-3.73-14.71s1.21-10.26,3.62-14.61c2.42-4.34,5.74-7.72,9.98-10.14,4.24-2.42,9.02-3.63,14.34-3.63s10.07,1.21,14.24,3.63c4.17,2.42,7.43,5.8,9.77,10.14,2.35,4.35,3.52,9.32,3.52,14.92,0,.77-.07,1.79-.21,3.05ZM636.6,82.23c-3.26,2.94-5.17,6.8-5.73,11.56h35.73c-.56-4.69-2.47-8.53-5.73-11.51-3.26-2.98-7.3-4.47-12.14-4.47s-8.88,1.47-12.14,4.41Z"/>
          <path class="cls-2" d="M730.88,75.45c4.17,4.1,6.25,10.11,6.25,18.02v32.05h-10.09v-30.89c0-5.4-1.3-9.46-3.89-12.19s-6.3-4.1-11.14-4.1c-5.46,0-9.77,1.6-12.93,4.78-3.15,3.19-4.73,7.76-4.73,13.71v28.69h-10.09v-55.7h9.67v8.41c2.03-2.87,4.78-5.08,8.25-6.62,3.47-1.54,7.41-2.31,11.82-2.31,7.07,0,12.7,2.05,16.87,6.15Z"/>
          <path class="cls-2" d="M758.14,122.47c-4.45-2.45-7.93-5.83-10.46-10.14-2.52-4.31-3.78-9.19-3.78-14.66s1.26-10.35,3.78-14.66c2.52-4.31,6.01-7.67,10.46-10.09,4.45-2.42,9.51-3.63,15.19-3.63,5.04,0,9.54,1.02,13.5,3.05,3.96,2.03,7.02,4.98,9.19,8.83l-7.67,4.94c-1.75-2.66-3.92-4.66-6.51-5.99-2.59-1.33-5.46-2-8.62-2-3.64,0-6.92.81-9.83,2.42-2.91,1.61-5.19,3.91-6.83,6.88-1.65,2.98-2.47,6.4-2.47,10.25s.82,7.37,2.47,10.35c1.65,2.98,3.92,5.27,6.83,6.88,2.91,1.61,6.18,2.42,9.83,2.42,3.15,0,6.02-.67,8.62-2,2.59-1.33,4.76-3.33,6.51-5.99l7.67,4.83c-2.17,3.85-5.24,6.82-9.19,8.88-3.96,2.07-8.46,3.1-13.5,3.1-5.68,0-10.74-1.23-15.19-3.68Z"/>
          <path class="cls-2" d="M857.04,101.04h-45.19c.63,4.91,2.78,8.85,6.46,11.82,3.68,2.98,8.25,4.47,13.71,4.47,6.65,0,12.01-2.24,16.08-6.73l5.57,6.51c-2.52,2.94-5.66,5.19-9.41,6.73-3.75,1.54-7.93,2.31-12.56,2.31-5.88,0-11.1-1.21-15.66-3.63-4.56-2.42-8.07-5.8-10.56-10.14-2.49-4.34-3.73-9.25-3.73-14.71s1.21-10.26,3.63-14.61c2.42-4.34,5.74-7.72,9.98-10.14,4.24-2.42,9.02-3.63,14.35-3.63s10.07,1.21,14.24,3.63c4.17,2.42,7.42,5.8,9.77,10.14,2.35,4.35,3.52,9.32,3.52,14.92,0,.77-.07,1.79-.21,3.05ZM817.58,82.23c-3.26,2.94-5.17,6.8-5.73,11.56h35.73c-.56-4.69-2.47-8.53-5.73-11.51-3.26-2.98-7.3-4.47-12.14-4.47s-8.88,1.47-12.14,4.41Z"/>
        </g>
        <circle class="cls-1" cx="286.72" cy="51.81" r="9.73"/>
      </g>
    </g>
  </g>
</svg>